<svg xmlns="http://www.w3.org/2000/svg" width="263.723" height="248.468" viewBox="0 0 263.723 248.468">
  <g id="Group_18" data-name="Group 18" transform="translate(-149 -2909)">
    <rect id="Rectangle_159" data-name="Rectangle 159" width="135.927" height="238.468" rx="20" transform="translate(154 2914)" fill="#e4e4e4" stroke="#fba547" stroke-width="10"/>
    <rect id="Rectangle_160" data-name="Rectangle 160" width="106.516" height="169.312" rx="2" transform="translate(169.103 2941.026)" fill="#fff"/>
    <rect id="Rectangle_161" data-name="Rectangle 161" width="40.54" height="7.154" rx="3.577" transform="translate(201.694 2925.128)" fill="#f6f6f6"/>
    <circle id="Ellipse_60" data-name="Ellipse 60" cx="9.936" cy="9.936" r="9.936" transform="translate(212.822 3119.083)" fill="#f6f6f6"/>
    <g id="intelligent-positioning-svgrepo-com" transform="translate(195.748 2917.373)">
      <path id="Path_42" data-name="Path 42" d="M306.232,300.575c-13.082,0-46.687-10.956-50.857-12.319-9.975-2.971-37.611-10.656-46.85-10.656-8.612,0-32.406,6.132-44.725,9.566v126.76c11.692-3.243,34.259-9.13,44.07-9.13,12.7,0,46.85,9.975,50.693,11.12l.082.027c10.684,3.352,40.691,11.992,51.048,11.828,7.986-.136,29.3-6.786,40.391-10.52V290.491C338.446,294.116,316.316,300.575,306.232,300.575Z" transform="translate(-152.926 -236.964)" fill="#f6f6f6"/>
      <path id="Path_43" data-name="Path 43" d="M331.988,246.4l-7.168,2.371c-9.948,3.271-37.911,11.8-47.614,11.8-9.675,0-37.557-8.531-47.5-11.8l-.136-.055c-3.788-1.145-37.5-11.12-50.066-11.12-12.946,0-47.75,9.975-51.674,11.12l-3.925,1.145V399.328l6.977-2.044c10.111-2.971,38.483-10.684,48-10.684,9.4,0,37.475,7.686,47.559,10.656,4.279,1.335,39.764,12.319,54.018,12.319h.436c12.346-.218,43.907-11.147,47.477-12.374l3.652-1.281L331.988,246.4ZM229.62,386.845l-.082-.027c-3.843-1.145-37.993-11.12-50.693-11.12-9.812,0-32.378,5.887-44.07,9.13V258.068c12.319-3.434,36.112-9.566,44.725-9.566,9.267,0,36.9,7.658,46.85,10.656,4.17,1.363,37.775,12.319,50.857,12.319,10.057,0,32.215-6.432,43.852-10.057V388.153c-11.12,3.734-32.406,10.384-40.391,10.52C270.311,398.837,240.3,390.2,229.62,386.845Z" transform="translate(-123.9 -207.865)" fill="#fba547"/>
      <path id="Path_44" data-name="Path 44" d="M606.471,168.6a43.166,43.166,0,0,0-13.927,84.025c1.99.681,5.042,2.4,11.065,9.812.954,1.172,1.881,2.371,2.726,3.489,8.2-11.42,11.883-12.592,13.218-13.028a43.168,43.168,0,0,0-13.082-84.3Z" transform="translate(-443.544 -157.671)" fill="#e4e4e4"/>
      <path id="Path_45" data-name="Path 45" d="M615.474,144.171a54.087,54.087,0,1,0-55.654,89.558c1.772.927,6.977,6.786,12.673,15.072a5.838,5.838,0,0,0,4.851,2.535h.082a5.894,5.894,0,0,0,4.851-2.671c5.178-7.958,9.948-13.627,11.665-14.636A54.559,54.559,0,0,0,620.9,214.624a54.155,54.155,0,0,0-5.424-70.453Zm-52.029,79.283a43.168,43.168,0,1,1,27.036.273c-1.336.436-5.042,1.608-13.218,13.028-.845-1.117-1.772-2.317-2.725-3.489-6.05-7.413-9.1-9.13-11.092-9.812Z" transform="translate(-414.446 -128.5)" fill="#fba547"/>
      <path id="Path_46" data-name="Path 46" d="M705.353,266.574a2.748,2.748,0,0,1-1.826-.709,2.718,2.718,0,0,1-.191-3.843,25.121,25.121,0,0,0-28.644-39.873,2.734,2.734,0,1,1-2.18-5.015A30.568,30.568,0,0,1,707.4,265.648,2.746,2.746,0,0,1,705.353,266.574Z" transform="translate(-521.794 -191.134)" fill="#fff"/>
      <path id="Path_47" data-name="Path 47" d="M213.7,458.891a2.489,2.489,0,0,1-.436-.027A2.709,2.709,0,0,1,211,455.757c0-.027.082-.545.245-1.445a2.721,2.721,0,1,1,5.342,1.036c-.164.79-.218,1.226-.218,1.254A2.7,2.7,0,0,1,213.7,458.891Zm128.178,44.452h-.818c-.709,0-1.417-.054-2.1-.109a2.72,2.72,0,1,1,.409-5.424c.6.055,1.2.082,1.772.082h.736a2.7,2.7,0,0,1,2.7,2.753A2.67,2.67,0,0,1,341.878,503.343Zm10.793-1.172a2.721,2.721,0,0,1-.627-5.369c.818-.191,1.635-.436,2.426-.681a2.724,2.724,0,0,1,1.69,5.178c-.9.3-1.853.572-2.807.79A3.509,3.509,0,0,1,352.67,502.171Zm-24.011-1.554a3.108,3.108,0,0,1-1.09-.218c-.872-.382-1.772-.818-2.644-1.281a2.719,2.719,0,1,1,2.562-4.8,24.612,24.612,0,0,0,2.262,1.09,2.711,2.711,0,0,1-1.09,5.206Zm36.221-4.2a2.713,2.713,0,0,1-1.69-4.851,20.6,20.6,0,0,0,1.853-1.608,2.718,2.718,0,0,1,3.761,3.925c-.709.681-1.472,1.336-2.262,1.962A2.732,2.732,0,0,1,364.88,496.421Zm-47.4-3.434a2.746,2.746,0,0,1-1.908-.763c-.681-.654-1.363-1.363-2.017-2.071a2.72,2.72,0,0,1,4.006-3.679c.572.627,1.172,1.254,1.772,1.826a2.69,2.69,0,0,1,.055,3.843A2.487,2.487,0,0,1,317.485,492.987Zm55.626-7.222a2.638,2.638,0,0,1-1.09-.245,2.718,2.718,0,0,1-1.39-3.6c.327-.736.627-1.526.9-2.317a2.732,2.732,0,0,1,5.178,1.744c-.327.927-.681,1.881-1.063,2.753A2.8,2.8,0,0,1,373.111,485.764ZM309.2,482.276a2.743,2.743,0,0,1-2.371-1.363c-.491-.845-.927-1.69-1.363-2.535a2.724,2.724,0,0,1,4.879-2.426c.382.763.79,1.526,1.2,2.262a2.715,2.715,0,0,1-1.008,3.707A2.873,2.873,0,0,1,309.2,482.276Zm-4.8-12.7a2.733,2.733,0,0,1-2.644-2.044c-.218-.818-.436-1.69-.681-2.562a2.718,2.718,0,1,1,5.233-1.472c.273.927.491,1.826.736,2.7a2.735,2.735,0,0,1-1.962,3.325A5.309,5.309,0,0,1,304.4,469.575Zm-4.061-13a2.719,2.719,0,0,1-2.562-1.8c-.3-.845-.627-1.663-.954-2.507a2.736,2.736,0,1,1,5.1-1.99c.327.845.654,1.744.981,2.589a2.727,2.727,0,0,1-1.608,3.488A2.03,2.03,0,0,1,300.342,456.575Zm-83.7-9.539a2.854,2.854,0,0,1-.818-.136,2.722,2.722,0,0,1-1.772-3.434c.273-.9.572-1.772.9-2.644a2.715,2.715,0,0,1,5.124,1.8c-.3.818-.572,1.663-.845,2.507a2.681,2.681,0,0,1-2.589,1.908Zm78.356-3a2.721,2.721,0,0,1-2.453-1.526c-.382-.79-.79-1.581-1.2-2.371a2.725,2.725,0,1,1,4.824-2.535c.436.818.845,1.663,1.254,2.48a2.747,2.747,0,0,1-1.226,3.652A2.375,2.375,0,0,1,295,444.038Zm-73.26-9.621a2.475,2.475,0,0,1-1.226-.3,2.721,2.721,0,0,1-1.2-3.652c.436-.845.872-1.69,1.335-2.507a2.727,2.727,0,0,1,4.77,2.644c-.409.736-.818,1.526-1.226,2.317A2.775,2.775,0,0,1,221.74,434.417Zm66.446-2.126a2.767,2.767,0,0,1-2.262-1.172c-.491-.736-1.008-1.445-1.526-2.153a2.728,2.728,0,1,1,4.388-3.243c.545.736,1.09,1.526,1.635,2.289a2.717,2.717,0,0,1-.709,3.788A2.671,2.671,0,0,1,288.186,432.291Zm-59.06-9.239a2.741,2.741,0,0,1-2.1-4.5c.627-.736,1.281-1.472,1.935-2.153a2.718,2.718,0,0,1,3.925,3.761q-.858.9-1.717,1.881A2.468,2.468,0,0,1,229.126,423.052Zm50.312-1.172a2.778,2.778,0,0,1-1.881-.736c-.627-.6-1.281-1.172-1.908-1.717a2.726,2.726,0,1,1,3.543-4.143c.709.6,1.444,1.254,2.126,1.908a2.715,2.715,0,0,1,.109,3.843A2.746,2.746,0,0,1,279.438,421.88Zm-39.9-7.468a2.724,2.724,0,0,1-1.281-5.124c.872-.463,1.772-.9,2.671-1.281a2.723,2.723,0,1,1,2.126,5.015c-.736.327-1.5.681-2.235,1.063A2.712,2.712,0,0,1,239.537,414.412Zm28.808-.273a2.63,2.63,0,0,1-1.172-.273c-.763-.354-1.526-.681-2.317-.981a2.726,2.726,0,0,1,1.935-5.1q1.349.531,2.7,1.145a2.74,2.74,0,0,1,1.308,3.625A2.7,2.7,0,0,1,268.345,414.14ZM255.263,410.9h-.354c-.736-.027-1.526-.027-2.262,0a2.728,2.728,0,1,1-.218-5.451c.9-.027,1.8-.027,2.671,0h.245a2.736,2.736,0,0,1,2.616,2.834A2.706,2.706,0,0,1,255.263,410.9Zm120.628,61.677h-.082a2.734,2.734,0,0,1-2.644-2.807c0-.409.027-.845.027-1.281a2.725,2.725,0,0,1,5.451,0c0,.491,0,.981-.027,1.444A2.717,2.717,0,0,1,375.891,472.573Z" transform="translate(-187.236 -329.951)" fill="#07c3ff"/>
      <path id="Path_48" data-name="Path 48" d="M203.541,632.4a6.541,6.541,0,1,0,6.541,6.541A6.56,6.56,0,0,0,203.541,632.4Z" transform="translate(-177.077 -495.065)" fill="#fff"/>
      <path id="Path_49" data-name="Path 49" d="M188.992,612.4a11.992,11.992,0,1,0,11.992,11.992A12.01,12.01,0,0,0,188.992,612.4Zm0,18.506a6.541,6.541,0,1,1,6.541-6.541A6.56,6.56,0,0,1,188.992,630.906Z" transform="translate(-162.528 -480.516)" fill="#07c3ff"/>
      <path id="Path_50" data-name="Path 50" d="M503.321,535.7a9.021,9.021,0,1,0,9.021,9.021A9.032,9.032,0,0,0,503.321,535.7Z" transform="translate(-393.35 -424.72)" fill="#fff"/>
      <path id="Path_51" data-name="Path 51" d="M488.772,515.7a14.472,14.472,0,1,0,14.472,14.472A14.481,14.481,0,0,0,488.772,515.7Zm0,23.521a9.021,9.021,0,1,1,9.021-9.021A9.032,9.032,0,0,1,488.772,539.221Z" transform="translate(-378.8 -410.171)" fill="#07c3ff"/>
    </g>
  </g>
</svg>
