<svg xmlns="http://www.w3.org/2000/svg" width="729.48" height="311.075" viewBox="0 0 729.48 311.075">
  <g id="Group_81" data-name="Group 81" transform="translate(-174.76 -5710.749)">
    <g id="Group_53" data-name="Group 53" transform="translate(-19.534 4124.483)">
      <circle id="Ellipse_38" data-name="Ellipse 38" cx="13.5" cy="13.5" r="13.5" transform="translate(486 1697)" fill="#fff"/>
      <circle id="Ellipse_39" data-name="Ellipse 39" cx="13.5" cy="13.5" r="13.5" transform="translate(633 1697)" fill="#fff"/>
      <rect id="Rectangle_136" data-name="Rectangle 136" width="150" height="9" transform="translate(500 1706)" fill="#fff"/>
    </g>
    <g id="Group_50" data-name="Group 50" transform="translate(-53.5 2652.638)">
      <g id="Group_28" data-name="Group 28" transform="translate(804.505 3306.206)">
        <text id="Proprietary_GPS_Tracker" data-name="Proprietary
GPS Tracker" transform="translate(58 20)" fill="#fba547" font-size="20" font-family="CenturyGothic-Bold, Century Gothic" font-weight="700"><tspan x="-52.397" y="0">Proprietary</tspan><tspan x="-57.798" y="24">GPS Tracker</tspan></text>
        <text id="w_GSM_module" data-name="w/ GSM module" transform="translate(58.667 59.981)" fill="#fba547" font-size="12" font-family="CenturyGothic-Bold, Century Gothic" font-weight="700"><tspan x="-46.796" y="0">w/ GSM module</tspan></text>
      </g>
      <g id="Group_32" data-name="Group 32" transform="translate(776 3079)">
        <g id="Group_30" data-name="Group 30">
          <g id="Group_25" data-name="Group 25">
            <g id="Rectangle_168" data-name="Rectangle 168" transform="translate(109.83 0)" fill="#e4e4e4" stroke="#fba547" stroke-width="5">
              <rect width="22.637" height="31.021" rx="8" stroke="none"/>
              <rect x="2.5" y="2.5" width="17.637" height="26.021" rx="5.5" fill="none"/>
            </g>
            <g id="Rectangle_169" data-name="Rectangle 169" transform="translate(136.659 0)" fill="#e4e4e4" stroke="#fba547" stroke-width="5">
              <rect width="22.637" height="31.021" rx="8" stroke="none"/>
              <rect x="2.5" y="2.5" width="17.637" height="26.021" rx="5.5" fill="none"/>
            </g>
            <rect id="Rectangle_162" data-name="Rectangle 162" width="177.74" height="171.871" rx="20" transform="translate(0 19.283)" fill="#e4e4e4" stroke="#fba547" stroke-width="8"/>
            <g id="Rectangle_170" data-name="Rectangle 170" transform="translate(28.506 187.801)" fill="#e4e4e4" stroke="#fba547" stroke-width="7">
              <path d="M0,0H120.729a0,0,0,0,1,0,0V10.96a10,10,0,0,1-10,10H10a10,10,0,0,1-10-10V0A0,0,0,0,1,0,0Z" stroke="none"/>
              <path d="M3.5,3.5H117.229a0,0,0,0,1,0,0v7.46a6.5,6.5,0,0,1-6.5,6.5H10a6.5,6.5,0,0,1-6.5-6.5V3.5A0,0,0,0,1,3.5,3.5Z" fill="none"/>
            </g>
            <rect id="Rectangle_171" data-name="Rectangle 171" width="22.637" height="11.738" rx="5.869" transform="translate(112.345 167.679)" fill="#07c3ff"/>
            <rect id="Rectangle_172" data-name="Rectangle 172" width="22.637" height="11.738" rx="5.869" transform="translate(139.174 167.679)" fill="#8cc84a"/>
          </g>
          <g id="Group_29" data-name="Group 29" transform="translate(25.571 39.405)">
            <line id="Line_6" data-name="Line 6" x1="39.405" y2="48.627" transform="translate(0 1.258)" fill="none" stroke="rgba(49,53,66,0.1)" stroke-width="1"/>
            <line id="Line_10" data-name="Line 10" x1="39.405" y2="48.627" transform="translate(90.128 72.102)" fill="none" stroke="rgba(49,53,66,0.1)" stroke-width="1"/>
            <line id="Line_7" data-name="Line 7" x1="73.779" y2="99.769" fill="none" stroke="rgba(49,53,66,0.1)" stroke-width="1"/>
            <line id="Line_9" data-name="Line 9" x1="73.779" y2="99.769" transform="translate(51.142 31.44)" fill="none" stroke="rgba(49,53,66,0.1)" stroke-width="1"/>
            <line id="Line_8" data-name="Line 8" x1="106.476" y2="133.305" transform="translate(9.222)" fill="none" stroke="rgba(49,53,66,0.1)" stroke-width="1"/>
          </g>
        </g>
        <rect id="Rectangle_174" data-name="Rectangle 174" width="31.021" height="7.546" rx="3.773" transform="translate(13.738 34.021)" fill="#fff"/>
        <rect id="Rectangle_175" data-name="Rectangle 175" width="31.021" height="8.384" rx="4.192" transform="translate(22.122 34.021) rotate(90)" fill="#fff"/>
        <rect id="Rectangle_176" data-name="Rectangle 176" width="8.384" height="8.384" rx="4.192" transform="translate(22.122 69.233) rotate(90)" fill="#fff"/>
      </g>
    </g>
    <g id="Group_52" data-name="Group 52" transform="translate(69 252.638)">
      <g id="Group_49" data-name="Group 49" transform="translate(-43.24 2549.111)">
        <rect id="Rectangle_159" data-name="Rectangle 159" width="135.927" height="238.468" rx="20" transform="translate(154 2914)" fill="#e4e4e4" stroke="#fba547" stroke-width="10"/>
        <rect id="Rectangle_160" data-name="Rectangle 160" width="106.516" height="169.312" rx="2" transform="translate(169.103 2941.026)" fill="#fff"/>
        <rect id="Rectangle_161" data-name="Rectangle 161" width="40.54" height="7.154" rx="3.577" transform="translate(201.694 2925.128)" fill="#f6f6f6"/>
        <circle id="Ellipse_60" data-name="Ellipse 60" cx="9.936" cy="9.936" r="9.936" transform="translate(212.822 3119.083)" fill="#f6f6f6"/>
      </g>
      <g id="Group_51" data-name="Group 51" transform="translate(-181 0)">
        <circle id="Ellipse_62" data-name="Ellipse 62" cx="46" cy="46" r="46" transform="translate(383 5540)" fill="#fff"/>
        <g id="cog-configure-gear-svgrepo-com" transform="translate(345.336 5497.474)">
          <path id="Path_69" data-name="Path 69" d="M85.649,149.2a65.164,65.164,0,0,0,14.517-1.619l15.893,14.544a83.526,83.526,0,0,0,21.87-12.642l-4.655-21.06a64.934,64.934,0,0,0,14.544-25.135L168.352,96.8a84.431,84.431,0,0,0,0-25.243l-20.534-6.489a64.935,64.935,0,0,0-14.544-25.148l4.655-21.033A83.526,83.526,0,0,0,116.058,6.24L100.165,20.757a64.759,64.759,0,0,0-29.034,0L55.239,6.24a83.526,83.526,0,0,0-21.87,12.642l4.655,21.033A64.935,64.935,0,0,0,23.48,65.05L2.946,71.539a84.416,84.416,0,0,0,0,25.243l20.534,6.489a64.935,64.935,0,0,0,14.544,25.148l-4.655,21.033a83.525,83.525,0,0,0,21.87,12.642l15.893-14.517A65.163,65.163,0,0,0,85.649,149.2ZM55.967,84.167a29.681,29.681,0,1,1,29.681,29.681A29.681,29.681,0,0,1,55.967,84.167Z" transform="translate(0.696 0.697)" fill="#e4e4e4"/>
          <path id="Path_70" data-name="Path 70" d="M116.754,165.49a2.7,2.7,0,0,1-1.821-.7l-14.841-13.6a67.727,67.727,0,0,1-27.442,0l-14.841,13.6a2.7,2.7,0,0,1-2.806.526,86.116,86.116,0,0,1-22.625-13.073,2.7,2.7,0,0,1-.944-2.7l4.344-19.657A68.106,68.106,0,0,1,22.03,106.127l-19.2-6.071A2.7,2.7,0,0,1,.983,97.9a87.115,87.115,0,0,1,0-26.052,2.7,2.7,0,0,1,1.848-2.172L22.03,63.6A68.133,68.133,0,0,1,35.778,39.83L31.434,20.1a2.7,2.7,0,0,1,.944-2.7A86.116,86.116,0,0,1,54.95,4.428a2.7,2.7,0,0,1,2.806.526L72.6,18.553a67.727,67.727,0,0,1,27.442,0l14.841-13.6a2.7,2.7,0,0,1,2.806-.526,86.116,86.116,0,0,1,22.625,13.06,2.7,2.7,0,0,1,.944,2.7l-4.344,19.657a68.105,68.105,0,0,1,13.748,23.772l19.2,6.071a2.7,2.7,0,0,1,1.862,2.172,87.128,87.128,0,0,1,0,26.052,2.7,2.7,0,0,1-1.848,2.172l-19.2,6.071a68.119,68.119,0,0,1-13.748,23.772l4.331,19.7a2.7,2.7,0,0,1-.944,2.7,86.117,86.117,0,0,1-22.571,13.046A2.7,2.7,0,0,1,116.754,165.49ZM37.073,149.07a80.72,80.72,0,0,0,18.241,10.577l14.638-13.4a2.7,2.7,0,0,1,2.415-.634,62.412,62.412,0,0,0,27.833,0,2.7,2.7,0,0,1,2.428.634l14.746,13.4a80.719,80.719,0,0,0,18.295-10.577L131.339,129.7a2.7,2.7,0,0,1,.661-2.415,62.6,62.6,0,0,0,13.937-24.1A2.7,2.7,0,0,1,147.7,101.4l18.888-5.977a81.706,81.706,0,0,0,0-21.128L147.7,68.324a2.7,2.7,0,0,1-1.767-1.781A62.6,62.6,0,0,0,132,42.447a2.7,2.7,0,0,1-.661-2.415l4.277-19.374a80.72,80.72,0,0,0-18.241-10.577l-14.692,13.4a2.7,2.7,0,0,1-2.428.634,62.412,62.412,0,0,0-27.833,0,2.7,2.7,0,0,1-2.415-.634l-14.692-13.4A80.72,80.72,0,0,0,37.019,20.658L41.3,40.032a2.7,2.7,0,0,1-.661,2.415,62.614,62.614,0,0,0-13.869,24.1A2.7,2.7,0,0,1,25,68.324L6.11,74.3a81.7,81.7,0,0,0,0,21.128L25,101.4a2.7,2.7,0,0,1,1.767,1.781,62.628,62.628,0,0,0,13.923,24.1,2.7,2.7,0,0,1,.661,2.415Zm49.271-31.827a32.38,32.38,0,1,1,32.38-32.38A32.38,32.38,0,0,1,86.344,117.244Zm0-59.363a26.983,26.983,0,1,0,26.983,26.983A26.983,26.983,0,0,0,86.344,57.881Z" transform="translate(0 0)" fill="#fba547"/>
          <path id="Path_71" data-name="Path 71" d="M22.092,0A35.481,35.481,0,0,0,9.12,6.224C3.6,10.77,0,18.185,0,18.185" transform="translate(32.078 50.034) rotate(-18)" fill="none" stroke="#fff" stroke-linecap="round" stroke-width="5"/>
        </g>
      </g>
    </g>
    <g id="Page-1" transform="translate(494 5706.885)">
      <g id="Dribbble-Light-Preview" transform="translate(129 -1161.728)">
        <g id="icons" transform="translate(0 0)">
          <path id="wifi-_1029_" data-name="wifi-[#1029]" d="M405.544,3511.6l5.242,5.506a7.082,7.082,0,0,0,10.485,0l5.242-5.506a14.167,14.167,0,0,0-20.969,0m-20.969-22.252,10.485,11.09a28.454,28.454,0,0,1,41.938,0l10.485-11.09c-17.371-18.479-45.536-18.479-62.907,0m78.31-16.367-4.918,5.205c-23.157-24.591-60.712-24.591-83.884,0l-4.91-5.205a8.31,8.31,0,0,1,.649-11.841,70.846,70.846,0,0,1,92.415,0,8.31,8.31,0,0,1,.649,11.841" transform="translate(-485.029 -2250.997)" fill="#fba547" fill-rule="evenodd"/>
        </g>
      </g>
    </g>
  </g>
</svg>
