<svg xmlns="http://www.w3.org/2000/svg" width="333" height="88" viewBox="0 0 333 88">
  <g id="Group_10" data-name="Group 10" transform="translate(-1426 -638)">
    <g id="Group_9" data-name="Group 9" transform="translate(0 -210)">
      <g id="Group_5" data-name="Group 5" transform="translate(0 115)">
        <g id="Group_3" data-name="Group 3" transform="translate(332 -117)">
          <rect id="Rectangle_1" data-name="Rectangle 1" width="333" height="88" rx="44" transform="translate(1094 850)" fill="#fff"/>
        </g>
        <text id="VIEW_IT_ON_App_Store" data-name="VIEW IT ONApp Store" transform="translate(1539 748)" fill="#020202" font-size="20" font-family="SegoeUI-Semibold, Segoe UI" font-weight="600"><tspan x="0" y="22">VIEW IT ON</tspan><tspan font-size="30" font-family="SegoeUI-Bold, Segoe UI" font-weight="700"><tspan x="0" y="50">App Store</tspan></tspan></text>
      </g>
    </g>
    <path id="apple" d="M47.964,53.984c-2.466,3.683-5.08,7.278-9.06,7.337-3.98.089-5.258-2.347-9.773-2.347-4.545,0-5.941,2.287-9.714,2.436-3.891.149-6.832-3.921-9.327-7.515C5.01,46.558,1.118,33.042,6.347,23.952A14.508,14.508,0,0,1,18.585,16.5c3.8-.059,7.426,2.584,9.773,2.584,2.317,0,6.713-3.178,11.318-2.7a13.794,13.794,0,0,1,10.813,5.882c-.267.178-6.446,3.8-6.387,11.318a13.109,13.109,0,0,0,7.961,12,32.833,32.833,0,0,1-4.1,8.407M31,6.456A13.5,13.5,0,0,1,39.735,2a13,13,0,0,1-3.089,9.476C34.6,14,31.21,15.961,27.883,15.694,27.437,12.278,29.1,8.713,31,6.456Z" transform="translate(1468.136 650.293)"/>
  </g>
</svg>
