<svg xmlns="http://www.w3.org/2000/svg" width="52.175" height="37.945" viewBox="0 0 52.175 37.945">
  <path id="cloud-tags" d="M50.471,24.159A10.229,10.229,0,0,0,43.689,20.6,16,16,0,0,0,38.851,8.838,16,16,0,0,0,27.088,4,16.11,16.11,0,0,0,17.008,7.391a16.221,16.221,0,0,0-5.929,8.822,12.445,12.445,0,0,0-7.3,4.625A13.088,13.088,0,0,0,1,29.091a12.339,12.339,0,0,0,3.818,9.131,12.614,12.614,0,0,0,9.225,3.723H42.5A10.608,10.608,0,0,0,53.175,31.273a10.329,10.329,0,0,0-2.7-7.115M23.53,32.886l-3.344,3.368L9.3,25.344,20.186,14.435,23.53,17.8l-7.542,7.542,7.542,7.542m10.459,3.368-3.344-3.368,7.542-7.542L30.645,17.8l3.344-3.368L44.874,25.344Z" transform="translate(-1 -4)" fill="#fba547"/>
</svg>
