<svg xmlns="http://www.w3.org/2000/svg" width="28.047" height="27.368" viewBox="0 0 28.047 27.368">
  <path id="github_1_" data-name="github (1)" d="M16.024,2a14.034,14.034,0,0,0-4.431,27.346c.7.112.926-.323.926-.7v-2.37C8.633,27.116,7.806,24.4,7.806,24.4a3.773,3.773,0,0,0-1.557-2.061c-1.276-.869.1-.841.1-.841a2.949,2.949,0,0,1,2.146,1.444A3.012,3.012,0,0,0,12.574,24.1a3.028,3.028,0,0,1,.883-1.879c-3.113-.351-6.381-1.557-6.381-6.9a5.431,5.431,0,0,1,1.444-3.8,5.016,5.016,0,0,1,.14-3.7s1.178-.379,3.857,1.43a13.511,13.511,0,0,1,7.012,0c2.679-1.809,3.857-1.43,3.857-1.43a5.016,5.016,0,0,1,.14,3.7,5.431,5.431,0,0,1,1.444,3.8c0,5.357-3.282,6.535-6.409,6.886A3.346,3.346,0,0,1,19.53,24.8v3.842c0,.379.224.827.94.7A14.037,14.037,0,0,0,16.024,2Z" transform="translate(-2 -2)" fill="#fff"/>
</svg>
