<svg id="gmail-svgrepo-com" xmlns="http://www.w3.org/2000/svg" width="27.368" height="27.368" viewBox="0 0 27.368 27.368">
  <rect id="Rectangle_184" data-name="Rectangle 184" width="27.368" height="27.368" rx="13.684" transform="translate(0 0)" fill="#fff"/>
  <path id="Path_76" data-name="Path 76" d="M80.384,196.961v-7.593L76,186v9.357a1.418,1.418,0,0,0,1.6,1.6" transform="translate(-71.936 -175.686)" fill="#4285f4"/>
  <path id="Path_77" data-name="Path 77" d="M154,155.24l5.454,4.117,5.454-4.117V150l-5.454,4.117L154,150" transform="translate(-145.766 -141.611)" fill="#ea4335"/>
  <path id="Path_78" data-name="Path 78" d="M354,196.961v-7.593L358.384,186v9.357a1.418,1.418,0,0,1-1.6,1.6" transform="translate(-335.072 -175.686)" fill="#34a853"/>
  <path id="Path_79" data-name="Path 79" d="M76,124.983l4.384,3.369v-5.24l-1.6-1.23a1.655,1.655,0,0,0-2.78,1.39" transform="translate(-71.936 -114.562)" fill="#c5221f"/>
  <path id="Path_80" data-name="Path 80" d="M358.384,124.983,354,128.351v-5.24l1.6-1.23a1.655,1.655,0,0,1,2.78,1.39" transform="translate(-335.072 -114.562)" fill="#fbbc04"/>
</svg>
