<svg id="linkedin-1-svgrepo-com" xmlns="http://www.w3.org/2000/svg" width="27.368" height="27.368" viewBox="0 0 27.368 27.368">
  <rect id="Rectangle_185" data-name="Rectangle 185" width="27.368" height="27.368" rx="13.684" transform="translate(0 0)" fill="#1275b1"/>
  <path id="Path_81" data-name="Path 81" d="M12.533,9.652A1.712,1.712,0,0,1,10.766,11.3,1.712,1.712,0,0,1,9,9.652,1.712,1.712,0,0,1,10.766,8,1.712,1.712,0,0,1,12.533,9.652Z" transform="translate(-2.167 -2.3)" fill="#fff"/>
  <path id="Path_82" data-name="Path 82" d="M9.247,12.628h3.019v9.149H9.247Z" transform="translate(-2.172 -2.411)" fill="#fff"/>
  <path id="Path_83" data-name="Path 83" d="M17.246,12.624H14.227v9.149h3.019V17.092c0-1.081.369-2.167,1.842-2.167,1.664,0,1.654,1.415,1.646,2.51-.01,1.432.014,2.894.014,4.337h3.019V16.944c-.026-3.083-.829-4.5-3.472-4.5A3.745,3.745,0,0,0,17.246,13.8Z" transform="translate(-2.291 -2.406)" fill="#fff"/>
</svg>
