<svg xmlns="http://www.w3.org/2000/svg" width="12.824" height="17.577" viewBox="0 0 12.824 17.577">
  <path id="mouse-outline" d="M11.214,7.426V1.07a6.291,6.291,0,0,1,1.6.417,6.417,6.417,0,0,1,3.807,4.336,6.6,6.6,0,0,1,.2,1.6H11.214m3.735-1.6a4.765,4.765,0,0,0-2.132-2.557V5.823h2.132m-5.338,1.6V1.07a6.291,6.291,0,0,0-1.6.417A6.417,6.417,0,0,0,4.2,5.823a6.6,6.6,0,0,0-.2,1.6H9.611m-3.735-1.6A4.8,4.8,0,0,1,8.008,3.266V5.823H5.876M5.6,12.235v-1.6h9.618v1.6a4.809,4.809,0,0,1-9.618,0m-1.6,0a6.412,6.412,0,1,0,12.824,0V9.029H4Z" transform="translate(-4 -1.07)" fill="#fc8d41"/>
</svg>
