<svg xmlns="http://www.w3.org/2000/svg" width="27.238" height="29.751" viewBox="0 0 27.238 29.751">
  <path id="weather-night" d="M24.291,5.374,20.71,8.12,22,12.452,18.275,9.889l-3.723,2.562L15.841,8.12,12.259,5.374l4.516-.127L18.275,1l1.5,4.247,4.516.127m4.954,9.781-2.321,1.769.835,2.8-2.406-1.656-2.406,1.656.835-2.8L21.46,15.155l2.916-.071.977-2.76.977,2.76,2.916.071m-3.227,7.007c1.175-.113,2.435,1.557,1.684,2.619a12.106,12.106,0,0,1-1.529,1.8A14.153,14.153,0,0,1,6.159,6.563a14.075,14.075,0,0,1,1.8-1.529c1.062-.75,2.732.51,2.619,1.684A14.179,14.179,0,0,0,26.018,22.162M23.7,25.021a17.1,17.1,0,0,1-11.041-4.912A17.086,17.086,0,0,1,7.716,9.04,11.318,11.318,0,0,0,23.7,25.021Z" transform="translate(-2.007 -1)" fill="#fff"/>
</svg>
