<svg xmlns="http://www.w3.org/2000/svg" width="40.342" height="37.047" viewBox="0 0 40.342 37.047">
  <path id="perforce-icon" d="M6.289,15.681a14.706,14.706,0,0,1,.963-2.049l-1.2-1.087C10.718,6.96,16.8,5.282,22.175,6.259a15.765,15.765,0,0,1,3.287.811,14.68,14.68,0,0,1,8.707,18.969,15.594,15.594,0,0,1-1.032,2.16,12.939,12.939,0,0,1,1.307,1.114c-5.172,6.114-12.063,7.538-17.8,5.832q-.825-.206-1.651-.5A14.693,14.693,0,0,1,6.289,15.681ZM32.56,2.614,29.837,5.186a19.941,19.941,0,0,0-2.9-1.348C18.186.586,8.971,4.265,3.9,11.1A21.656,21.656,0,0,0,.058,24.814,18.857,18.857,0,0,0,8.7,39.655l2.187-3A20.643,20.643,0,0,0,13.937,38.1c9.9,3.673,20.878-1.018,24.469-10.473a24.508,24.508,0,0,0,1.761-12.063s-.674-8.5-7.606-12.956Z" transform="translate(0 -2.608)" fill="#2481fd"/>
</svg>
