<svg xmlns="http://www.w3.org/2000/svg" xmlns:xlink="http://www.w3.org/1999/xlink" width="278" height="342.244" viewBox="0 0 278 342.244">
  <defs>
    <clipPath id="clip-path">
      <rect width="36" height="44" fill="none"/>
    </clipPath>
    <clipPath id="clip-path-2">
      <rect width="19" height="44" fill="none"/>
    </clipPath>
  </defs>
  <g id="Group_17" data-name="Group 17" transform="translate(-139 -1496.351)">
    <g id="Group_16" data-name="Group 16">
      <g id="Group_15" data-name="Group 15" transform="translate(-1280 112.727)">
        <g id="Group_14" data-name="Group 14" transform="translate(1419 1383.624)">
          <path id="Rectangle_109" data-name="Rectangle 109" d="M10,0H133a5,5,0,0,1,5,5V58a5,5,0,0,1-5,5H0a0,0,0,0,1,0,0V10A10,10,0,0,1,10,0Z" transform="translate(18 13.649)" fill="#e4e4e4"/>
          <path id="Rectangle_110" data-name="Rectangle 110" d="M0,0H110a0,0,0,0,1,0,0V63a0,0,0,0,1,0,0H10A10,10,0,0,1,0,53V0A0,0,0,0,1,0,0Z" transform="translate(260 118.649) rotate(180)" fill="#e4e4e4"/>
          <rect id="Rectangle_107" data-name="Rectangle 107" width="242" height="105" transform="translate(18 149.649)" fill="#fba547"/>
          <rect id="Rectangle_104" data-name="Rectangle 104" width="278" height="106" rx="10" transform="translate(0 70.649)" fill="#fba547"/>
          <rect id="Rectangle_105" data-name="Rectangle 105" width="260" height="89" rx="6" transform="translate(9 78.649)" fill="#e4e4e4"/>
          <rect id="Rectangle_106" data-name="Rectangle 106" width="104" height="51" rx="1" transform="translate(87 95.649)" fill="#fff"/>
          <g id="Repeat_Grid_1" data-name="Repeat Grid 1" transform="translate(212 101.649)" clip-path="url(#clip-path)">
            <g transform="translate(-1817 -1572)">
              <circle id="Ellipse_29" data-name="Ellipse 29" cx="7" cy="7" r="7" transform="translate(1817 1572)" fill="#fff"/>
              <circle id="Ellipse_30" data-name="Ellipse 30" cx="7" cy="7" r="7" transform="translate(1836 1572)" fill="#fff"/>
              <circle id="Ellipse_31" data-name="Ellipse 31" cx="7" cy="7" r="7" transform="translate(1854 1572)" fill="#fff"/>
              <circle id="Ellipse_32" data-name="Ellipse 32" cx="7" cy="7" r="7" transform="translate(1872 1572)" fill="#fff"/>
            </g>
            <g transform="translate(-1817 -1548)">
              <circle id="Ellipse_29-2" data-name="Ellipse 29" cx="7" cy="7" r="7" transform="translate(1817 1572)" fill="#fff"/>
              <circle id="Ellipse_30-2" data-name="Ellipse 30" cx="7" cy="7" r="7" transform="translate(1836 1572)" fill="#fff"/>
              <circle id="Ellipse_31-2" data-name="Ellipse 31" cx="7" cy="7" r="7" transform="translate(1854 1572)" fill="#fff"/>
              <circle id="Ellipse_32-2" data-name="Ellipse 32" cx="7" cy="7" r="7" transform="translate(1872 1572)" fill="#fff"/>
            </g>
          </g>
          <path id="Path_40" data-name="Path 40" d="M0,0H242V86.329c0,5.327-4.784,9.646-10.684,9.646H10.684C4.784,95.975,0,91.656,0,86.329Z" transform="translate(18 246.269)" fill="#e4e4e4"/>
          <path id="Rectangle_111" data-name="Rectangle 111" d="M0,0H123.112a5,5,0,0,1,5,5V7a5,5,0,0,1-5,5H5A5,5,0,0,1,0,7V0A0,0,0,0,1,0,0Z" transform="matrix(0.966, -0.259, 0.259, 0.966, 121.33, 33.158)" fill="#e4e4e4"/>
          <g id="Repeat_Grid_2" data-name="Repeat Grid 2" transform="translate(36 101.649)" clip-path="url(#clip-path-2)">
            <g transform="translate(-1817 -1572)">
              <circle id="Ellipse_29-3" data-name="Ellipse 29" cx="7" cy="7" r="7" transform="translate(1817 1572)" fill="#fff"/>
              <circle id="Ellipse_30-3" data-name="Ellipse 30" cx="7" cy="7" r="7" transform="translate(1836 1572)" fill="#fff"/>
              <circle id="Ellipse_31-3" data-name="Ellipse 31" cx="7" cy="7" r="7" transform="translate(1854 1572)" fill="#fff"/>
              <circle id="Ellipse_32-3" data-name="Ellipse 32" cx="7" cy="7" r="7" transform="translate(1872 1572)" fill="#fff"/>
            </g>
            <g transform="translate(-1817 -1548)">
              <circle id="Ellipse_29-4" data-name="Ellipse 29" cx="7" cy="7" r="7" transform="translate(1817 1572)" fill="#fff"/>
              <circle id="Ellipse_30-4" data-name="Ellipse 30" cx="7" cy="7" r="7" transform="translate(1836 1572)" fill="#fff"/>
              <circle id="Ellipse_31-4" data-name="Ellipse 31" cx="7" cy="7" r="7" transform="translate(1854 1572)" fill="#fff"/>
              <circle id="Ellipse_32-4" data-name="Ellipse 32" cx="7" cy="7" r="7" transform="translate(1872 1572)" fill="#fff"/>
            </g>
          </g>
        </g>
      </g>
      <rect id="Rectangle_125" data-name="Rectangle 125" width="18" height="5" rx="2.5" transform="translate(154 1581)" fill="#fff"/>
      <rect id="Rectangle_130" data-name="Rectangle 130" width="18" height="5" rx="2.5" transform="translate(165.5 1828.5) rotate(-90)" fill="#fff"/>
      <rect id="Rectangle_135" data-name="Rectangle 135" width="18" height="5" rx="2.5" transform="translate(393.5 1750) rotate(90)" fill="#fff"/>
      <rect id="Rectangle_127" data-name="Rectangle 127" width="18" height="5" rx="2.5" transform="translate(163 1516)" fill="#fff"/>
      <rect id="Rectangle_126" data-name="Rectangle 126" width="17" height="5" rx="2.5" transform="translate(159 1581) rotate(90)" fill="#fff"/>
      <rect id="Rectangle_129" data-name="Rectangle 129" width="17" height="5" rx="2.5" transform="translate(165.5 1823.5)" fill="#fff"/>
      <rect id="Rectangle_134" data-name="Rectangle 134" width="17" height="5" rx="2.5" transform="translate(393.5 1755) rotate(180)" fill="#fff"/>
      <rect id="Rectangle_131" data-name="Rectangle 131" width="9" height="5" rx="2.5" transform="translate(187.5 1823.5)" fill="#fff"/>
      <rect id="Rectangle_137" data-name="Rectangle 137" width="9" height="5" rx="2.5" transform="translate(352.5 1655.5)" fill="#25c2ec"/>
      <rect id="Rectangle_138" data-name="Rectangle 138" width="9" height="5" rx="2.5" transform="translate(363.5 1655.5)" fill="#07c3ff"/>
      <rect id="Rectangle_139" data-name="Rectangle 139" width="9" height="5" rx="2.5" transform="translate(374.5 1655.5)" fill="#fba547"/>
      <rect id="Rectangle_128" data-name="Rectangle 128" width="17" height="5" rx="2.5" transform="translate(168 1516) rotate(90)" fill="#fff"/>
      <circle id="Ellipse_37" data-name="Ellipse 37" cx="2.5" cy="2.5" r="2.5" transform="translate(184 1516)" fill="#fff"/>
    </g>
    <rect id="Rectangle_132" data-name="Rectangle 132" width="143" height="26" rx="13" transform="translate(207 1764)" fill="#f6f6f6"/>
    <rect id="Rectangle_133" data-name="Rectangle 133" width="220" height="61" transform="translate(169 1673)" fill="#e99941"/>
  </g>
</svg>
