<svg xmlns="http://www.w3.org/2000/svg" width="52.175" height="40.833" viewBox="0 0 52.175 40.833">
  <path id="tablet-cellphone" d="M5.537,4H44.1a4.537,4.537,0,0,1,4.537,4.537v4.537H39.564V8.537H10.074V35.759H30.49V40.3H5.537A4.537,4.537,0,0,1,1,35.759V8.537A4.537,4.537,0,0,1,5.537,4M37.3,17.611H50.907a2.268,2.268,0,0,1,2.268,2.268V42.564a2.268,2.268,0,0,1-2.268,2.268H37.3a2.268,2.268,0,0,1-2.268-2.268V19.879A2.268,2.268,0,0,1,37.3,17.611m2.268,4.537V38.027h9.074V22.148Z" transform="translate(-1 -4)" fill="#fba547"/>
</svg>
