<svg xmlns="http://www.w3.org/2000/svg" width="333" height="88" viewBox="0 0 333 88">
  <g id="Group_63" data-name="Group 63" transform="translate(-995 -770)">
    <g id="Group_59" data-name="Group 59" transform="translate(-431 37)">
      <g id="Group_61" data-name="Group 61">
        <g id="Group_3" data-name="Group 3" transform="translate(332 -117)">
          <rect id="Rectangle_1" data-name="Rectangle 1" width="333" height="88" rx="44" transform="translate(1094 850)" fill="#f13838"/>
        </g>
        <text id="VIEW_TUTORIAL_ON_YouTube" data-name="VIEW TUTORIAL ONYouTube" transform="translate(1539 748)" fill="#fff" font-size="20" font-family="SegoeUI-Semibold, Segoe UI" font-weight="600"><tspan x="0" y="22">VIEW TUTORIAL ON</tspan><tspan font-size="30" font-family="SegoeUI-Bold, Segoe UI" font-weight="700"><tspan x="0" y="50">YouTube</tspan></tspan></text>
      </g>
    </g>
    <path id="youtube" d="M26.188,35.235l15.692-9.07-15.692-9.07V35.235M61.14,11.561a31.258,31.258,0,0,1,.847,5.745c.212,2.419.3,4.505.3,6.319l.181,2.54c0,6.621-.484,11.489-1.33,14.6A7.084,7.084,0,0,1,55.909,46a42.626,42.626,0,0,1-8.012.847c-3.931.212-7.529.3-10.854.3l-4.807.181c-12.668,0-20.56-.484-23.674-1.33A7.084,7.084,0,0,1,3.33,40.768a31.259,31.259,0,0,1-.847-5.745c-.212-2.419-.3-4.505-.3-6.319L2,26.164c0-6.621.484-11.489,1.33-14.6A7.084,7.084,0,0,1,8.561,6.33a42.626,42.626,0,0,1,8.012-.847c3.931-.212,7.529-.3,10.854-.3L32.235,5c12.668,0,20.56.484,23.674,1.33A7.084,7.084,0,0,1,61.14,11.561Z" transform="translate(1028 787.836)" fill="#fff"/>
  </g>
</svg>
